<svg width="20" height="20" viewBox="0 0 20 20" fill="none" xmlns="http://www.w3.org/2000/svg">
<path d="M13.5078 11.0015C13.6036 11.002 13.6967 11.0027 13.7872 11.0036L14.3005 11.0117L14.7583 11.0257L15.1667 11.0468C16.1309 11.1093 16.689 11.2489 17.2699 11.5449C18.2108 12.0243 18.9757 12.7892 19.4551 13.7301L19.5039 13.8281L19.5928 14.0215L19.6705 14.2155C19.6825 14.2482 19.6942 14.2811 19.7054 14.3143L19.7678 14.5185C19.7774 14.5535 19.7866 14.589 19.7954 14.6251L19.8441 14.8507C19.8516 14.8899 19.8586 14.9299 19.8654 14.9709L19.902 15.229L19.9315 15.5151L19.9546 15.8342L19.9721 16.1911L19.9892 16.8085L19.999 17.8109L20 19C20 19.5523 19.5523 20 19 20H1C0.447594 20 0 19.5521 0 18.9997L0.000378501 17.7877L0.00359963 17.2128L0.0116529 16.6995L0.025667 16.2417L0.0467708 15.8333C0.109333 14.8691 0.248943 14.311 0.544966 13.7301C1.02433 12.7892 1.78925 12.0243 2.73008 11.5449C3.34979 11.2292 3.9434 11.0914 5.0317 11.0353L5.46401 11.0178L5.9488 11.007L6.49218 11.0015H13.5078ZM13.4733 13.0013H6.52843L5.83083 13.0096L5.2575 13.0276L4.93561 13.0458L4.6559 13.0698L4.41315 13.0999L4.20213 13.1368C4.07086 13.1637 3.95727 13.1956 3.85439 13.233L3.70723 13.2934L3.63804 13.327C3.07356 13.6146 2.61461 14.0735 2.32698 14.638C2.30387 14.6834 2.28228 14.7301 2.26215 14.7791L2.20598 14.9337C2.17998 15.0152 2.15702 15.1037 2.13679 15.2021L2.09991 15.413L2.06977 15.6557L2.04585 15.9353L2.02041 16.4353L2.00587 17.0476L2 18H17.999L17.996 17.3632L17.9901 16.9152L17.975 16.3464L17.96 16.0282L17.9406 15.7528L17.9161 15.5146L17.8862 15.3084L17.8502 15.1288C17.8437 15.1008 17.837 15.0737 17.8299 15.0473L17.7841 14.8977L17.7311 14.7614L17.673 14.638C17.3854 14.0736 16.9264 13.6146 16.362 13.327C16.3166 13.3039 16.2699 13.2823 16.2209 13.2621L16.0664 13.206C15.9849 13.18 15.8964 13.157 15.7979 13.1368L15.587 13.0999L15.3443 13.0698L15.0648 13.0458L14.5649 13.0204L13.9526 13.0059L13.4733 13.0013ZM10 0C12.4853 0 14.5 2.01472 14.5 4.5C14.5 6.98528 12.4853 9 10 9C7.51472 9 5.5 6.98528 5.5 4.5C5.5 2.01472 7.51472 0 10 0ZM10 2C8.61929 2 7.5 3.11929 7.5 4.5C7.5 5.88072 8.61928 7 10 7C11.3807 7 12.5 5.88072 12.5 4.5C12.5 3.11929 11.3807 2 10 2Z" fill="white" fill-opacity="0.85"/>
</svg>
